G75*
%MOIN*%
%OFA0B0*%
%FSLAX24Y24*%
%IPPOS*%
%LPD*%
%AMOC8*
5,1,8,0,0,1.08239X$1,22.5*
%
%ADD10C,0.0000*%
%ADD11OC8,0.0600*%
%ADD12C,0.2000*%
%ADD13C,0.0600*%
%ADD14C,0.0160*%
%ADD15C,0.1502*%
%ADD16C,0.0413*%
D10*
X000480Y003580D02*
X000480Y012650D01*
X013472Y012650D01*
X013472Y003580D01*
X000480Y003580D01*
D11*
X004820Y007680D03*
X005900Y007680D03*
X006980Y007680D03*
X008060Y007680D03*
X009140Y007680D03*
X008600Y006680D03*
X007520Y006680D03*
X006440Y006680D03*
X005360Y006680D03*
D12*
X002050Y007180D03*
X011910Y007180D03*
D13*
X010980Y009580D02*
X010980Y010180D01*
X009980Y010180D02*
X009980Y009580D01*
X008980Y009580D02*
X008980Y010180D01*
X007980Y010180D02*
X007980Y009580D01*
X006980Y009580D02*
X006980Y010180D01*
X005980Y010180D02*
X005980Y009580D01*
X004980Y009580D02*
X004980Y010180D01*
X003980Y010180D02*
X003980Y009580D01*
X002980Y009580D02*
X002980Y010180D01*
D14*
X002980Y009880D02*
X002980Y009180D01*
X003380Y008780D01*
X004480Y008780D01*
X005360Y007900D01*
X005360Y006680D01*
X004983Y007067D02*
X003290Y007067D01*
X003290Y007017D02*
X003205Y006701D01*
X003042Y006419D01*
X002811Y006188D01*
X002529Y006025D01*
X002213Y005940D01*
X001887Y005940D01*
X001571Y006025D01*
X001289Y006188D01*
X001058Y006419D01*
X000895Y006701D01*
X000810Y007017D01*
X000810Y007343D01*
X000895Y007659D01*
X001058Y007941D01*
X001289Y008172D01*
X001571Y008335D01*
X000720Y008335D01*
X000720Y008177D02*
X001296Y008177D01*
X001134Y008018D02*
X000720Y008018D01*
X000720Y007860D02*
X001010Y007860D01*
X000919Y007701D02*
X000720Y007701D01*
X000720Y007543D02*
X000863Y007543D01*
X000821Y007384D02*
X000720Y007384D01*
X000720Y007226D02*
X000810Y007226D01*
X000810Y007067D02*
X000720Y007067D01*
X000720Y006909D02*
X000839Y006909D01*
X000881Y006750D02*
X000720Y006750D01*
X000720Y006592D02*
X000958Y006592D01*
X001049Y006433D02*
X000720Y006433D01*
X000720Y006275D02*
X001202Y006275D01*
X001413Y006116D02*
X000720Y006116D01*
X000720Y005958D02*
X001821Y005958D01*
X002279Y005958D02*
X011681Y005958D01*
X011747Y005940D02*
X012073Y005940D01*
X012389Y006025D01*
X012671Y006188D01*
X012902Y006419D01*
X013065Y006701D01*
X013150Y007017D01*
X013150Y007343D01*
X013065Y007659D01*
X012902Y007941D01*
X012671Y008172D01*
X012389Y008335D01*
X013232Y008335D01*
X013232Y008177D02*
X012664Y008177D01*
X012826Y008018D02*
X013232Y008018D01*
X013232Y007860D02*
X012950Y007860D01*
X013041Y007701D02*
X013232Y007701D01*
X013232Y007543D02*
X013097Y007543D01*
X013139Y007384D02*
X013232Y007384D01*
X013232Y007226D02*
X013150Y007226D01*
X013150Y007067D02*
X013232Y007067D01*
X013232Y006909D02*
X013121Y006909D01*
X013079Y006750D02*
X013232Y006750D01*
X013232Y006592D02*
X013002Y006592D01*
X012911Y006433D02*
X013232Y006433D01*
X013232Y006275D02*
X012758Y006275D01*
X012547Y006116D02*
X013232Y006116D01*
X013232Y005958D02*
X012139Y005958D01*
X011747Y005940D02*
X011431Y006025D01*
X011149Y006188D01*
X010918Y006419D01*
X010755Y006701D01*
X010670Y007017D01*
X010670Y007343D01*
X010755Y007659D01*
X010918Y007941D01*
X011149Y008172D01*
X011431Y008335D01*
X008578Y008335D01*
X008736Y008177D02*
X008873Y008177D01*
X008916Y008220D02*
X008804Y008108D01*
X007873Y009040D01*
X008087Y009040D01*
X008286Y009122D01*
X008438Y009274D01*
X008480Y009376D01*
X008522Y009274D01*
X008674Y009122D01*
X008873Y009040D01*
X009087Y009040D01*
X009286Y009122D01*
X009438Y009274D01*
X009480Y009376D01*
X009522Y009274D01*
X009674Y009122D01*
X009873Y009040D01*
X010087Y009040D01*
X010286Y009122D01*
X010438Y009274D01*
X010480Y009376D01*
X010522Y009274D01*
X010674Y009122D01*
X010873Y009040D01*
X011087Y009040D01*
X011286Y009122D01*
X011438Y009274D01*
X011520Y009473D01*
X011520Y010287D01*
X011438Y010486D01*
X011286Y010638D01*
X011087Y010720D01*
X010873Y010720D01*
X010674Y010638D01*
X010522Y010486D01*
X010480Y010384D01*
X010438Y010486D01*
X010286Y010638D01*
X010087Y010720D01*
X009873Y010720D01*
X009674Y010638D01*
X009522Y010486D01*
X009480Y010384D01*
X009438Y010486D01*
X009286Y010638D01*
X009087Y010720D01*
X008873Y010720D01*
X008674Y010638D01*
X008522Y010486D01*
X008480Y010384D01*
X008438Y010486D01*
X008286Y010638D01*
X008087Y010720D01*
X007873Y010720D01*
X007674Y010638D01*
X007522Y010486D01*
X007445Y010301D01*
X007425Y010364D01*
X007391Y010432D01*
X007346Y010493D01*
X007293Y010546D01*
X007232Y010591D01*
X007164Y010625D01*
X007092Y010648D01*
X007018Y010660D01*
X007000Y010660D01*
X007000Y009900D01*
X006960Y009900D01*
X006960Y010660D01*
X006942Y010660D01*
X006868Y010648D01*
X006796Y010625D01*
X006728Y010591D01*
X006667Y010546D01*
X006614Y010493D01*
X006569Y010432D01*
X006535Y010364D01*
X006515Y010301D01*
X006438Y010486D01*
X006286Y010638D01*
X006087Y010720D01*
X005873Y010720D01*
X005674Y010638D01*
X005522Y010486D01*
X005480Y010384D01*
X005438Y010486D01*
X005286Y010638D01*
X005087Y010720D01*
X004873Y010720D01*
X004674Y010638D01*
X004522Y010486D01*
X004480Y010384D01*
X004438Y010486D01*
X004286Y010638D01*
X004087Y010720D01*
X003873Y010720D01*
X003674Y010638D01*
X003522Y010486D01*
X003480Y010384D01*
X003438Y010486D01*
X003286Y010638D01*
X003087Y010720D01*
X002873Y010720D01*
X002674Y010638D01*
X002522Y010486D01*
X002440Y010287D01*
X002440Y009473D01*
X002522Y009274D01*
X002660Y009136D01*
X002660Y009116D01*
X002709Y008999D01*
X002799Y008909D01*
X003199Y008509D01*
X003316Y008460D01*
X004347Y008460D01*
X004647Y008160D01*
X004621Y008160D01*
X004340Y007879D01*
X004340Y007700D01*
X004800Y007700D01*
X004800Y007660D01*
X004840Y007660D01*
X004840Y007200D01*
X005019Y007200D01*
X005040Y007221D01*
X005040Y007124D01*
X004820Y006904D01*
X004820Y006456D01*
X005136Y006140D01*
X005584Y006140D01*
X005900Y006456D01*
X006216Y006140D01*
X006664Y006140D01*
X006980Y006456D01*
X007296Y006140D01*
X007744Y006140D01*
X008060Y006456D01*
X008376Y006140D01*
X008824Y006140D01*
X009140Y006456D01*
X009140Y006904D01*
X008920Y007124D01*
X008920Y007140D01*
X009364Y007140D01*
X009680Y007456D01*
X009680Y007904D01*
X009364Y008220D01*
X008916Y008220D01*
X008600Y007860D02*
X007380Y009080D01*
X006480Y009080D01*
X005980Y009580D01*
X005980Y009880D01*
X005485Y010396D02*
X005475Y010396D01*
X005370Y010554D02*
X005590Y010554D01*
X005855Y010713D02*
X005105Y010713D01*
X004855Y010713D02*
X004105Y010713D01*
X004370Y010554D02*
X004590Y010554D01*
X004485Y010396D02*
X004475Y010396D01*
X003855Y010713D02*
X003105Y010713D01*
X002855Y010713D02*
X002214Y010713D01*
X002320Y010819D02*
X002471Y011183D01*
X002471Y011577D01*
X002320Y011941D01*
X002041Y012220D01*
X001677Y012371D01*
X001283Y012371D01*
X000919Y012220D01*
X000720Y012022D01*
X000720Y012410D01*
X013232Y012410D01*
X013232Y011913D01*
X013220Y011941D01*
X012941Y012220D01*
X012577Y012371D01*
X012183Y012371D01*
X011819Y012220D01*
X011540Y011941D01*
X011389Y011577D01*
X011389Y011183D01*
X011540Y010819D01*
X011819Y010540D01*
X012183Y010389D01*
X012577Y010389D01*
X012941Y010540D01*
X013220Y010819D01*
X013232Y010847D01*
X013232Y003820D01*
X000720Y003820D01*
X000720Y010738D01*
X000919Y010540D01*
X001283Y010389D01*
X001677Y010389D01*
X002041Y010540D01*
X002320Y010819D01*
X002342Y010871D02*
X011518Y010871D01*
X011452Y011030D02*
X002408Y011030D01*
X002471Y011188D02*
X011389Y011188D01*
X011389Y011347D02*
X002471Y011347D01*
X002471Y011505D02*
X011389Y011505D01*
X011425Y011664D02*
X002435Y011664D01*
X002370Y011822D02*
X011490Y011822D01*
X011579Y011981D02*
X002281Y011981D01*
X002123Y012139D02*
X011737Y012139D01*
X012005Y012298D02*
X001855Y012298D01*
X001105Y012298D02*
X000720Y012298D01*
X000720Y012139D02*
X000837Y012139D01*
X000746Y010713D02*
X000720Y010713D01*
X000720Y010554D02*
X000904Y010554D01*
X000720Y010396D02*
X001267Y010396D01*
X001693Y010396D02*
X002485Y010396D01*
X002440Y010237D02*
X000720Y010237D01*
X000720Y010079D02*
X002440Y010079D01*
X002440Y009920D02*
X000720Y009920D01*
X000720Y009762D02*
X002440Y009762D01*
X002440Y009603D02*
X000720Y009603D01*
X000720Y009445D02*
X002452Y009445D01*
X002517Y009286D02*
X000720Y009286D01*
X000720Y009128D02*
X002660Y009128D01*
X002738Y008969D02*
X000720Y008969D01*
X000720Y008811D02*
X002897Y008811D01*
X003055Y008652D02*
X000720Y008652D01*
X000720Y008494D02*
X003235Y008494D01*
X002811Y008172D02*
X002529Y008335D01*
X004472Y008335D01*
X004631Y008177D02*
X002804Y008177D01*
X002811Y008172D02*
X003042Y007941D01*
X003205Y007659D01*
X003290Y007343D01*
X003290Y007017D01*
X003261Y006909D02*
X004825Y006909D01*
X004820Y006750D02*
X003219Y006750D01*
X003142Y006592D02*
X004820Y006592D01*
X004843Y006433D02*
X003051Y006433D01*
X002898Y006275D02*
X005002Y006275D01*
X005718Y006275D02*
X006082Y006275D01*
X005923Y006433D02*
X005877Y006433D01*
X005900Y006456D02*
X005900Y006904D01*
X005900Y006456D01*
X005900Y006592D02*
X005900Y006592D01*
X005900Y006750D02*
X005900Y006750D01*
X005900Y006904D02*
X006120Y007124D01*
X006120Y007140D01*
X005680Y007140D01*
X005680Y007124D01*
X005900Y006904D01*
X005895Y006909D02*
X005905Y006909D01*
X006063Y007067D02*
X005737Y007067D01*
X006440Y006680D02*
X006440Y007920D01*
X006080Y008280D01*
X005480Y008280D01*
X004680Y009080D01*
X004380Y009080D01*
X003980Y009480D01*
X003980Y009880D01*
X003485Y010396D02*
X003475Y010396D01*
X003370Y010554D02*
X003590Y010554D01*
X002590Y010554D02*
X002056Y010554D01*
X002213Y008420D02*
X001887Y008420D01*
X001571Y008335D01*
X002213Y008420D02*
X002529Y008335D01*
X002966Y008018D02*
X004479Y008018D01*
X004340Y007860D02*
X003090Y007860D01*
X003181Y007701D02*
X004340Y007701D01*
X004340Y007660D02*
X004340Y007481D01*
X004621Y007200D01*
X004800Y007200D01*
X004800Y007660D01*
X004340Y007660D01*
X004340Y007543D02*
X003237Y007543D01*
X003279Y007384D02*
X004437Y007384D01*
X004596Y007226D02*
X003290Y007226D01*
X002687Y006116D02*
X011273Y006116D01*
X011062Y006275D02*
X008958Y006275D01*
X009117Y006433D02*
X010909Y006433D01*
X010818Y006592D02*
X009140Y006592D01*
X009140Y006750D02*
X010741Y006750D01*
X010699Y006909D02*
X009135Y006909D01*
X008977Y007067D02*
X010670Y007067D01*
X010670Y007226D02*
X009449Y007226D01*
X009608Y007384D02*
X010681Y007384D01*
X010723Y007543D02*
X009680Y007543D01*
X009680Y007701D02*
X010779Y007701D01*
X010870Y007860D02*
X009680Y007860D01*
X009566Y008018D02*
X010994Y008018D01*
X011156Y008177D02*
X009407Y008177D01*
X008600Y007860D02*
X008600Y006680D01*
X008223Y007067D02*
X007897Y007067D01*
X007840Y007124D02*
X007840Y007140D01*
X008280Y007140D01*
X008280Y007124D01*
X008060Y006904D01*
X008060Y006456D01*
X008060Y006904D01*
X007840Y007124D01*
X008055Y006909D02*
X008065Y006909D01*
X008060Y006750D02*
X008060Y006750D01*
X008060Y006592D02*
X008060Y006592D01*
X008037Y006433D02*
X008083Y006433D01*
X008242Y006275D02*
X007878Y006275D01*
X007520Y006680D02*
X007520Y007840D01*
X006680Y008680D01*
X005680Y008680D01*
X004980Y009380D01*
X004980Y009880D01*
X006105Y010713D02*
X007855Y010713D01*
X008105Y010713D02*
X008855Y010713D01*
X009105Y010713D02*
X009855Y010713D01*
X010105Y010713D02*
X010855Y010713D01*
X011105Y010713D02*
X011646Y010713D01*
X011804Y010554D02*
X011370Y010554D01*
X011475Y010396D02*
X012167Y010396D01*
X012593Y010396D02*
X013232Y010396D01*
X013232Y010237D02*
X011520Y010237D01*
X011520Y010079D02*
X013232Y010079D01*
X013232Y009920D02*
X011520Y009920D01*
X011520Y009762D02*
X013232Y009762D01*
X013232Y009603D02*
X011520Y009603D01*
X011508Y009445D02*
X013232Y009445D01*
X013232Y009286D02*
X011443Y009286D01*
X011291Y009128D02*
X013232Y009128D01*
X013232Y008969D02*
X007944Y008969D01*
X007873Y009040D02*
X007873Y009040D01*
X008102Y008811D02*
X013232Y008811D01*
X013232Y008652D02*
X008261Y008652D01*
X008419Y008494D02*
X013232Y008494D01*
X012389Y008335D02*
X012073Y008420D01*
X011747Y008420D01*
X011431Y008335D01*
X010669Y009128D02*
X010291Y009128D01*
X010443Y009286D02*
X010517Y009286D01*
X009669Y009128D02*
X009291Y009128D01*
X009443Y009286D02*
X009517Y009286D01*
X008669Y009128D02*
X008291Y009128D01*
X008443Y009286D02*
X008517Y009286D01*
X008475Y010396D02*
X008485Y010396D01*
X008590Y010554D02*
X008370Y010554D01*
X007590Y010554D02*
X007282Y010554D01*
X007409Y010396D02*
X007485Y010396D01*
X007000Y010396D02*
X006960Y010396D01*
X006960Y010237D02*
X007000Y010237D01*
X007000Y010079D02*
X006960Y010079D01*
X006960Y009920D02*
X007000Y009920D01*
X006551Y010396D02*
X006475Y010396D01*
X006370Y010554D02*
X006678Y010554D01*
X006960Y010554D02*
X007000Y010554D01*
X009370Y010554D02*
X009590Y010554D01*
X009485Y010396D02*
X009475Y010396D01*
X010370Y010554D02*
X010590Y010554D01*
X010485Y010396D02*
X010475Y010396D01*
X012755Y012298D02*
X013232Y012298D01*
X013232Y012139D02*
X013023Y012139D01*
X013181Y011981D02*
X013232Y011981D01*
X013232Y010713D02*
X013114Y010713D01*
X013232Y010554D02*
X012956Y010554D01*
X013232Y005799D02*
X000720Y005799D01*
X000720Y005641D02*
X013232Y005641D01*
X013232Y005482D02*
X000720Y005482D01*
X000720Y005324D02*
X013232Y005324D01*
X013232Y005165D02*
X000720Y005165D01*
X000720Y005007D02*
X013232Y005007D01*
X013232Y004848D02*
X000720Y004848D01*
X000720Y004690D02*
X013232Y004690D01*
X013232Y004531D02*
X000720Y004531D01*
X000720Y004373D02*
X013232Y004373D01*
X013232Y004214D02*
X000720Y004214D01*
X000720Y004056D02*
X013232Y004056D01*
X013232Y003897D02*
X000720Y003897D01*
X004800Y007226D02*
X004840Y007226D01*
X004840Y007384D02*
X004800Y007384D01*
X004800Y007543D02*
X004840Y007543D01*
X006760Y007140D02*
X007200Y007140D01*
X007200Y007124D01*
X006980Y006904D01*
X006980Y006456D01*
X006980Y006904D01*
X006760Y007124D01*
X006760Y007140D01*
X006817Y007067D02*
X007143Y007067D01*
X006985Y006909D02*
X006975Y006909D01*
X006980Y006750D02*
X006980Y006750D01*
X006980Y006592D02*
X006980Y006592D01*
X006957Y006433D02*
X007003Y006433D01*
X007162Y006275D02*
X006798Y006275D01*
D15*
X001480Y011380D03*
X012380Y011380D03*
D16*
X009980Y005380D03*
X003980Y005380D03*
M02*
