G75*
%MOIN*%
%OFA0B0*%
%FSLAX24Y24*%
%IPPOS*%
%LPD*%
%AMOC8*
5,1,8,0,0,1.08239X$1,22.5*
%
%ADD10C,0.0000*%
%ADD11C,0.0050*%
D10*
X000480Y003580D02*
X000480Y012650D01*
X013472Y012650D01*
X013472Y003580D01*
X000480Y003580D01*
D11*
X007526Y010705D02*
X007729Y010501D01*
X007628Y010705D02*
X007526Y010705D01*
X007526Y010807D01*
X007628Y010807D01*
X007628Y010705D01*
X007931Y010705D02*
X008134Y010705D01*
X008033Y010705D02*
X008033Y011112D01*
X008134Y011112D01*
X008033Y011316D02*
X008033Y011417D01*
X008216Y011705D02*
X007809Y011705D01*
X007809Y012112D02*
X007809Y012214D01*
X007911Y012316D01*
X008115Y012316D01*
X008216Y012214D01*
X008417Y012214D02*
X008417Y012112D01*
X008519Y012010D01*
X008417Y011909D01*
X008417Y011807D01*
X008519Y011705D01*
X008722Y011705D01*
X008824Y011807D01*
X009025Y011705D02*
X009432Y011705D01*
X009025Y012112D01*
X009025Y012214D01*
X009127Y012316D01*
X009330Y012316D01*
X009432Y012214D01*
X009633Y012010D02*
X010040Y012010D01*
X010240Y011909D02*
X010240Y011807D01*
X010342Y011705D01*
X010546Y011705D01*
X010647Y011807D01*
X010848Y011705D02*
X011051Y011909D01*
X010950Y011909D02*
X011255Y011909D01*
X011255Y011705D02*
X011255Y012316D01*
X010950Y012316D01*
X010848Y012214D01*
X010848Y012010D01*
X010950Y011909D01*
X010647Y012112D02*
X010546Y012010D01*
X010342Y012010D01*
X010240Y011909D01*
X010240Y012214D02*
X010342Y012316D01*
X010546Y012316D01*
X010647Y012214D01*
X010647Y012112D01*
X009755Y011112D02*
X009450Y011112D01*
X009348Y011010D01*
X009348Y010705D01*
X009147Y010807D02*
X009147Y011010D01*
X009046Y011112D01*
X008842Y011112D01*
X008740Y011010D01*
X008740Y010807D01*
X008842Y010705D01*
X009046Y010705D01*
X009147Y010807D01*
X008540Y011112D02*
X008336Y011112D01*
X008438Y011214D02*
X008438Y010807D01*
X008336Y010705D01*
X008216Y011705D02*
X007809Y012112D01*
X008417Y012214D02*
X008519Y012316D01*
X008722Y012316D01*
X008824Y012214D01*
X008621Y012010D02*
X008519Y012010D01*
X009755Y011112D02*
X009755Y010705D01*
X007001Y011705D02*
X006696Y011705D01*
X006594Y011807D01*
X006594Y012010D01*
X006696Y012112D01*
X007001Y012112D01*
X007001Y012316D02*
X007001Y011705D01*
X006615Y011316D02*
X006716Y011214D01*
X006615Y011316D02*
X006411Y011316D01*
X006309Y011214D01*
X006309Y011112D01*
X006716Y010705D01*
X006309Y010705D01*
X006109Y010807D02*
X005702Y011214D01*
X005702Y010807D01*
X005803Y010705D01*
X006007Y010705D01*
X006109Y010807D01*
X006109Y011214D01*
X006007Y011316D01*
X005803Y011316D01*
X005702Y011214D01*
X005501Y011112D02*
X005297Y011316D01*
X005297Y010705D01*
X005094Y010705D02*
X005501Y010705D01*
X004893Y011010D02*
X004486Y011010D01*
X004588Y010705D02*
X004588Y011316D01*
X004893Y011010D01*
X004872Y011705D02*
X005177Y011705D01*
X005279Y011807D01*
X005177Y011909D01*
X004872Y011909D01*
X004872Y012010D02*
X004872Y011705D01*
X004671Y011705D02*
X004671Y012316D01*
X004974Y012112D02*
X004872Y012010D01*
X004974Y012112D02*
X005177Y012112D01*
X005480Y012010D02*
X005480Y011909D01*
X005887Y011909D01*
X005887Y012010D02*
X005887Y011807D01*
X005785Y011705D01*
X005582Y011705D01*
X005480Y012010D02*
X005582Y012112D01*
X005785Y012112D01*
X005887Y012010D01*
X006088Y012112D02*
X006190Y012112D01*
X006393Y011909D01*
X006393Y012112D02*
X006393Y011705D01*
X004671Y011909D02*
X004366Y012112D01*
X004165Y012010D02*
X004165Y011807D01*
X004063Y011705D01*
X003860Y011705D01*
X003758Y011807D01*
X003758Y012010D01*
X003860Y012112D01*
X004063Y012112D01*
X004165Y012010D01*
X004366Y011705D02*
X004671Y011909D01*
X003557Y011807D02*
X003455Y011705D01*
X003150Y011705D01*
X003150Y012112D01*
X002950Y012112D02*
X002746Y012112D01*
X002848Y012214D02*
X002848Y011807D01*
X002746Y011705D01*
X003557Y011807D02*
X003557Y012112D01*
M02*
