%
M48
M72
T01C0.0276
T02C0.0400
T03C0.1102
T04C0.1300
%
T01
X3980Y5380
X9980Y5380
T02
X4820Y7680
X5900Y7680
X6980Y7680
X8060Y7680
X9140Y7680
X8600Y6680
X7520Y6680
X6440Y6680
X5360Y6680
X4980Y9880
X3980Y9880
X2980Y9880
X5980Y9880
X6980Y9880
X7980Y9880
X8980Y9880
X9980Y9880
X10980Y9880
T03
X1480Y11380
X12380Y11380
T04
X2050Y7180
X11910Y7180
M30
